<?xml version="1.0" standalone="no"?>
<!DOCTYPE svg PUBLIC "-//W3C//DTD SVG 20010904//EN"
 "http://www.w3.org/TR/2001/REC-SVG-20010904/DTD/svg10.dtd">
<svg version="1.0" xmlns="http://www.w3.org/2000/svg"
 width="700.000000pt" height="700.000000pt" viewBox="0 0 700.000000 700.000000"
 preserveAspectRatio="xMidYMid meet">
<metadata>
Created by potrace 1.11, written by Peter Selinger 2001-2013
</metadata>
<g transform="translate(0.000000,700.000000) scale(0.100000,-0.100000)"
fill="#000000" stroke="none">
<path d="M560 6985 c-281 -56 -507 -291 -550 -571 -7 -48 -10 -973 -8 -2959
l3 -2890 29 -84 c78 -222 252 -388 481 -457 57 -18 184 -19 2950 -22 2612 -2
2898 -1 2970 13 282 57 493 268 550 551 14 71 15 356 13 2969 -3 2740 -4 2893
-21 2949 -72 241 -252 420 -495 494 -53 16 -246 17 -2957 19 -2347 1 -2912 -1
-2965 -12z m4651 -1285 c189 -35 363 -216 419 -436 20 -75 20 -118 20 -1744 0
-1626 0 -1669 -20 -1744 -43 -170 -157 -319 -295 -387 l-70 -34 -1987 -3
-1988 -2 0 1090 0 1090 435 0 435 0 0 -655 0 -655 1310 0 1310 0 0 1310 0
1310 -1745 0 -1745 0 0 435 0 435 1934 0 c1253 0 1952 -4 1987 -10z"/>
</g>
</svg>
