<svg width="344" height="35" viewBox="0 0 344 35" fill="none" xmlns="http://www.w3.org/2000/svg">
<g clip-path="url(#clip0)">
<path d="M0.952148 10.1169H7.43915V29.016H38.4923V6.10221H0.952148V0.20308H39.6918C40.4082 0.1938 41.1182 0.330391 41.7742 0.603637C42.397 0.854806 42.9637 1.2163 43.4439 1.66876C43.9113 2.11099 44.2915 2.62895 44.5667 3.19816C44.8477 3.78405 44.9917 4.4207 44.9889 5.0644V30.0082C44.993 30.6728 44.8593 31.3317 44.5955 31.9473C44.3355 32.5197 43.957 33.0367 43.4823 33.4676C43.018 33.9084 42.4713 34.2634 41.8702 34.5145C41.2471 34.7609 40.5779 34.8848 39.9029 34.8787H0.952148V10.1169Z" fill="white"/>
<path d="M57.8343 4.96436C58.2151 3.61156 58.9939 2.38956 60.0798 1.44127C61.2172 0.572662 62.652 0.131912 64.1102 0.203178H75.9231C77.4495 0.118647 78.9555 0.568962 80.155 1.46858C81.2559 2.40196 82.0518 3.61511 82.4484 4.96436L92.3805 34.9152H85.5384L82.2469 25.0014H62.2773L63.8991 19.1022H80.4141L76.3165 6.10231H63.9471L54.7444 34.9152H47.8447L57.8343 4.96436Z" fill="white"/>
<path d="M106.194 6.10225H87.376V0.203125H131.451V6.10225H112.681V34.9151H106.194V6.10225Z" fill="white"/>
<path d="M136.459 4.96452C136.832 3.61078 137.608 2.38764 138.694 1.44143C139.829 0.574198 141.26 0.13348 142.715 0.203339H154.538C156.045 0.129781 157.529 0.579624 158.712 1.46874C159.816 2.4016 160.615 3.61462 161.015 4.96452L170.947 34.9154H164.095L160.881 25.0015H140.911L142.533 19.1024H159.057L154.912 6.10247H142.581L133.378 34.9154H126.479L136.459 4.96452Z" fill="white"/>
<path d="M174.107 29.0161H211.628V20.1401H179.337C178.634 20.1575 177.933 20.0463 177.274 19.8123C176.645 19.58 176.073 19.2267 175.595 18.7745C175.13 18.3328 174.758 17.8105 174.501 17.236C174.244 16.6597 174.11 16.0409 174.107 15.4153V5.06451C174.094 4.3817 174.238 3.70439 174.53 3.07993C174.924 2.22115 175.575 1.49089 176.402 0.979573C177.229 0.468253 178.196 0.198319 179.184 0.20319H214.047V6.10232H180.594V14.2409H212.895C213.598 14.2334 214.294 14.3668 214.939 14.6324C215.551 14.8852 216.11 15.2398 216.589 15.6793C217.064 16.1189 217.446 16.6413 217.712 17.2178C217.984 17.7902 218.124 18.4108 218.125 19.0385V30.0539C218.152 30.7071 218.031 31.3583 217.769 31.9631C217.508 32.5679 217.112 33.1121 216.609 33.5588C216.131 33.9995 215.567 34.3463 214.948 34.5791C214.328 34.8119 213.667 34.9261 213.001 34.9152H174.107V29.0161Z" fill="white"/>
<path d="M222.824 0.203125H229.311V14.9783H239.761L251.843 0.203125H259.52L245.356 17.2633L261.727 34.9151H253.253L239.972 20.8865H229.311V34.9151H222.824V0.203125Z" fill="white"/>
<path d="M272.509 4.96447C272.89 3.61167 273.669 2.38967 274.755 1.44138C275.889 0.574145 277.32 0.133428 278.775 0.203287H290.598C292.108 0.130007 293.595 0.579697 294.782 1.46869C295.883 2.40207 296.679 3.61522 297.075 4.96447L307.017 34.9153H300.165L296.96 25.0015H276.952L278.574 19.1023H295.089L290.963 6.10242H278.622L269.419 34.9153H262.52L272.509 4.96447Z" fill="white"/>
<path d="M309.442 29.016H322.57V6.10225H309.442V0.203125H343.029V6.10225H329.047V29.016H343.009V34.9151H309.423L309.442 29.016Z" fill="white"/>
</g>
<defs>
<clipPath id="clip0">
<rect width="343" height="35" fill="white" transform="translate(0.824219)"/>
</clipPath>
</defs>
</svg>
