<svg width="114" height="32" viewBox="0 0 114 32" fill="none" xmlns="http://www.w3.org/2000/svg">
<path d="M0.0742188 31V1.01758H4.97559V26.7959H17.6699V31H0.0742188ZM49.457 15.9678C49.457 20.8486 48.2334 24.6426 45.7861 27.3496C43.3525 30.0566 39.9004 31.4102 35.4297 31.4102C30.9043 31.4102 27.4248 30.0703 24.9912 27.3906C22.5713 24.6973 21.3613 20.876 21.3613 15.9268C21.3613 10.9775 22.5781 7.17676 25.0117 4.52441C27.459 1.87207 30.9453 0.545898 35.4707 0.545898C39.9277 0.545898 43.373 1.89258 45.8066 4.58594C48.2402 7.2793 49.457 11.0732 49.457 15.9678ZM26.5703 15.9678C26.5703 19.6592 27.3154 22.4619 28.8057 24.376C30.2959 26.2764 32.5039 27.2266 35.4297 27.2266C38.3418 27.2266 40.5361 26.2832 42.0127 24.3965C43.5029 22.5098 44.248 19.7002 44.248 15.9678C44.248 12.29 43.5098 9.50098 42.0332 7.60059C40.5703 5.7002 38.3828 4.75 35.4707 4.75C32.5312 4.75 30.3096 5.7002 28.8057 7.60059C27.3154 9.50098 26.5703 12.29 26.5703 15.9678ZM68.1602 14.7373H79.1934V29.79C77.3887 30.3779 75.6523 30.7949 73.9844 31.041C72.3301 31.2871 70.5391 31.4102 68.6113 31.4102C64.0723 31.4102 60.5723 30.0703 58.1113 27.3906C55.6504 24.6973 54.4199 20.9033 54.4199 16.0088C54.4199 11.1826 55.8076 7.40918 58.583 4.68848C61.3584 1.9541 65.1797 0.586914 70.0469 0.586914C73.1777 0.586914 76.1445 1.18848 78.9473 2.3916L77.2246 6.47266C74.791 5.35156 72.3574 4.79102 69.9238 4.79102C66.7246 4.79102 64.1953 5.7959 62.3359 7.80566C60.4766 9.81543 59.5469 12.5635 59.5469 16.0498C59.5469 19.7139 60.3809 22.5029 62.0488 24.417C63.7305 26.3174 66.1436 27.2676 69.2881 27.2676C70.874 27.2676 72.5693 27.0693 74.374 26.6729V18.9414H68.1602V14.7373ZM113.031 15.9678C113.031 20.8486 111.808 24.6426 109.36 27.3496C106.927 30.0566 103.475 31.4102 99.0039 31.4102C94.4785 31.4102 90.999 30.0703 88.5654 27.3906C86.1455 24.6973 84.9355 20.876 84.9355 15.9268C84.9355 10.9775 86.1523 7.17676 88.5859 4.52441C91.0332 1.87207 94.5195 0.545898 99.0449 0.545898C103.502 0.545898 106.947 1.89258 109.381 4.58594C111.814 7.2793 113.031 11.0732 113.031 15.9678ZM90.1445 15.9678C90.1445 19.6592 90.8896 22.4619 92.3799 24.376C93.8701 26.2764 96.0781 27.2266 99.0039 27.2266C101.916 27.2266 104.11 26.2832 105.587 24.3965C107.077 22.5098 107.822 19.7002 107.822 15.9678C107.822 12.29 107.084 9.50098 105.607 7.60059C104.145 5.7002 101.957 4.75 99.0449 4.75C96.1055 4.75 93.8838 5.7002 92.3799 7.60059C90.8896 9.50098 90.1445 12.29 90.1445 15.9678Z" fill="#F2F2F2"/>
</svg>
