<svg width="32" height="25" viewBox="0 0 32 25" fill="none" xmlns="http://www.w3.org/2000/svg">
<path d="M0.0292969 7.97514H4.59586V20.7731H26.4559V4.25332H0.0292969V0.000319409H27.3003C27.8046 -0.00637074 28.3045 0.0921054 28.7662 0.289103C29.2047 0.470185 29.6036 0.730803 29.9416 1.05701C30.2706 1.37584 30.5383 1.74926 30.732 2.15964C30.9298 2.58204 31.0312 3.04104 31.0292 3.50511V21.4885C31.0321 21.9676 30.938 22.4426 30.7523 22.8865C30.5693 23.2991 30.3028 23.6719 29.9687 23.9825C29.6418 24.3003 29.257 24.5563 28.8338 24.7373C28.3952 24.9149 27.9241 25.0042 27.4489 24.9998H0.0292969V7.97514Z" fill="white"/>
</svg>
