<svg width="53" height="66" viewBox="0 0 53 66" fill="none" xmlns="http://www.w3.org/2000/svg">
<path fill-rule="evenodd" clip-rule="evenodd" d="M12.8721 0.946804H13.2135H51.5989H52.5989V1.9468V64.0534V65.0534H51.5989H1H0V64.0534V13.5174V13.5092V13.5014V13.0789L0.307228 12.788L12.1667 1.23064C12.3445 1.05732 12.5758 0.960196 12.8139 0.948071L12.8153 0.946804H12.8575C12.8624 0.946769 12.8672 0.946769 12.8721 0.946804ZM2 14.5092V63.0534H50.5989V2.9468H13.8646V13.5092C13.8646 14.0615 13.4169 14.5092 12.8646 14.5092H2ZM3.5109 12.5092L11.8646 4.60088V12.5092H3.5109Z" fill="#F2F2F2"/>
<line x1="13.2139" y1="24.402" x2="36.943" y2="24.402" stroke="#F2F2F2" stroke-width="2"/>
<line x1="13.2139" y1="30.3484" x2="36.943" y2="30.3484" stroke="#F2F2F2" stroke-width="2"/>
<line x1="13.2139" y1="35.634" x2="27.1722" y2="35.634" stroke="#F2F2F2" stroke-width="2"/>
</svg>
